<svg width="24" height="24" class="icon_svg"><path d="M21.82 4.353a.986.986 0 0 0-.51-.277l-.087-.504a2.993 2.993 0 0 0-2.956-2.49h-6.86a2.995 2.995 0 0 0-2.956 2.49l-.087.504a.987.987 0 0 0-.51.277 1 1 0 0 0-.258.762l.536 6.128H2.924a1 1 0 0 0-.994 1.11l.87 7.838a3.168 3.168 0 0 0 3.151 2.82h3.986c.057 0 .11-.012.167-.015h8.577a1.989 1.989 0 0 0 1.992-1.826l1.405-16.055a1 1 0 0 0-.259-.762Zm-11.398-.44a.999.999 0 0 1 .985-.831h6.86c.488 0 .902.349.985.83l.02.116h-.646c-1.103 0-2 .898-2 2v2.877a.723.723 0 0 1-1.444 0V6.028c0-1.102-.898-2-2-2h-2.78l.02-.115Zm.678 16.058a1.16 1.16 0 0 1-1.08 1.025H7.382v.016h-1.43a1.168 1.168 0 0 1-1.164-1.041l-.386-3.481c1.18-.229 1.94.024 2.86.337.771.262 1.597.542 2.672.542.444 0 .93-.048 1.473-.166l-.307 2.768Zm-3.196-5.038c-.996-.338-2.108-.705-3.723-.431l-.14-1.259h7.807l-.204 1.828c-1.721.545-2.665.225-3.74-.138Zm4.973 6.063c.1-.255.18-.52.21-.805l.053-.471h5.652l-.111 1.276h-5.805Zm6.09-3.276h-5.604l.596-5.366a1.003 1.003 0 0 0-.994-1.11H10.14l-.456-5.216h3.498v2.877a2.725 2.725 0 0 0 2.721 2.723 2.726 2.726 0 0 0 2.723-2.723V6.028h1.364L18.967 17.72Z"/></svg>